<?xml version="1.0" encoding="UTF-8"?>
<svg version="1.1" xmlns="http://www.w3.org/2000/svg" width="512" height="512">
<path d="M0 0 C1.23451904 0.4626123 2.46903809 0.92522461 3.7409668 1.40185547 C20.35787543 7.84075087 20.35787543 7.84075087 22.6875 12.5 C23.47942818 19.66745125 20.92769546 26.05928716 18.75 32.8125 C18.33878359 34.10552733 17.92790014 35.39866059 17.51733398 36.69189453 C16.25965537 40.63417523 14.97587269 44.56766358 13.6875 48.5 C13.30851562 49.66289551 12.92953125 50.82579102 12.5390625 52.02392578 C4.49227664 76.53166764 -4.33599613 101.60796612 -21.3125 121.5 C-21.98796875 122.30824219 -22.6634375 123.11648437 -23.359375 123.94921875 C-35.19024924 137.64702173 -50.57356178 147.65733413 -65.8125 157.1875 C-67.05652588 157.97108887 -67.05652588 157.97108887 -68.32568359 158.77050781 C-80.49917946 166.281864 -92.17576509 171.46283399 -105.9375 175.0625 C-124.00488934 179.35325558 -124.00488934 179.35325558 -138.19921875 190.46484375 C-145.81337647 204.3840584 -142.22148327 221.93573036 -138.28125 236.5 C-131.96051604 256.9996777 -118.15502148 273.5327365 -104.70019531 289.81298828 C-102.88152908 292.02392841 -101.09351656 294.2586724 -99.3125 296.5 C-93.41561177 295.44717256 -87.62168961 294.10169062 -81.8359375 292.5546875 C-80.84572601 292.29114471 -80.84572601 292.29114471 -79.83551025 292.02227783 C-77.0923978 291.29043492 -74.35013194 290.55593031 -71.61132812 289.80810547 C-56.00119066 285.55851507 -56.00119066 285.55851507 -50.3125 286.5 C-47.34765625 288.23828125 -47.34765625 288.23828125 -45.3125 291.5 C-44.61174451 295.57942545 -44.66091787 299.55842299 -44.75 303.6875 C-44.73904297 304.77353516 -44.72808594 305.85957031 -44.71679688 306.97851562 C-44.78460447 314.50515911 -45.6402379 322.20976644 -50.72412109 328.14916992 C-56.36326971 333.14139541 -62.10387405 333.90320744 -69.3125 334.5 C-68.96316406 335.31984375 -68.61382812 336.1396875 -68.25390625 336.984375 C-67.79886719 338.06203125 -67.34382812 339.1396875 -66.875 340.25 C-66.42253906 341.31734375 -65.97007812 342.3846875 -65.50390625 343.484375 C-63.40277092 348.80265851 -62.09605513 353.9630543 -64.03125 359.58984375 C-67.43340482 366.95660641 -72.26087241 369.81993049 -79.69140625 372.61328125 C-86.09681163 374.78023657 -91.58290198 376.24969549 -98.3125 374.5 C-101.99448211 371.94210294 -102.77066031 367.73942638 -104.01171875 363.65625 C-104.2516304 362.89074829 -104.49154205 362.12524658 -104.73872375 361.33654785 C-105.2430858 359.72069519 -105.74291985 358.10342315 -106.23852539 356.48486328 C-106.99814466 354.00605438 -107.7722509 351.53213603 -108.54882812 349.05859375 C-109.03731666 347.48724574 -109.52497524 345.91563943 -110.01171875 344.34375 C-110.24291916 343.60306274 -110.47411957 342.86237549 -110.71232605 342.09924316 C-111.61847092 339.12610496 -112.3125 336.6271143 -112.3125 333.5 C-112.86292969 333.37625 -113.41335937 333.2525 -113.98046875 333.125 C-153.59111674 323.29910283 -185.48052652 302.64008434 -209.3125 269.5 C-210.0859375 268.448125 -210.859375 267.39625 -211.65625 266.3125 C-217.55133935 258.07552585 -222.60002179 249.45745741 -227.3125 240.5 C-227.79614014 239.58395996 -227.79614014 239.58395996 -228.28955078 238.64941406 C-233.78092881 228.06895675 -237.37672876 217.03438085 -240.3125 205.5 C-240.49329102 204.80165039 -240.67408203 204.10330078 -240.86035156 203.38378906 C-251.74640961 159.03879318 -237.9064391 109.74373153 -215.14941406 71.54785156 C-203.6635616 52.79368281 -188.79763685 37.43549832 -170.3125 25.5 C-169.29800781 24.83871094 -168.28351563 24.17742187 -167.23828125 23.49609375 C-116.24112722 -8.84033696 -57.24433404 -21.46111469 0 0 Z M-120.3125 19.5 C-119.85674772 39.51166828 -114.21286144 57.24012911 -101.3125 72.5 C-100.35150391 73.74910156 -100.35150391 73.74910156 -99.37109375 75.0234375 C-89.5536676 86.83415511 -74.48099909 95.86788054 -59.12548828 97.33447266 C-47.88425547 97.99595121 -36.56369638 97.7066676 -25.3125 97.5 C-16.25807052 80.04132614 -9.10521369 62.33005273 -2.875 43.6875 C-2.60570679 42.88429321 -2.33641357 42.08108643 -2.05895996 41.25354004 C-1.28448395 38.93532335 -0.51759237 36.61475985 0.24609375 34.29296875 C0.47801926 33.59674911 0.70994476 32.90052948 0.94889832 32.18321228 C2.20963237 28.30897408 3.12951523 24.53607679 3.6875 20.5 C-21.95282509 9.52804212 -21.95282509 9.52804212 -49.3125 5.5 C-50.11300781 5.46261719 -50.91351563 5.42523438 -51.73828125 5.38671875 C-74.71329996 4.70783017 -99.65295595 9.17022798 -120.3125 19.5 Z M-134.3125 25.5 C-136.3696158 26.25431657 -136.3696158 26.25431657 -138.64453125 27.4921875 C-139.95671631 28.1720874 -139.95671631 28.1720874 -141.29541016 28.86572266 C-142.69605713 29.61281494 -142.69605713 29.61281494 -144.125 30.375 C-145.07681152 30.87950684 -146.02862305 31.38401367 -147.00927734 31.90380859 C-173.51033329 46.1729161 -192.07928524 65.3395103 -206.3125 91.5 C-203.1165777 92.56530743 -201.76009914 92.45151272 -198.49316406 91.97094727 C-197.02583832 91.76061607 -197.02583832 91.76061607 -195.52886963 91.54603577 C-194.4726239 91.38775803 -193.41637817 91.22948029 -192.328125 91.06640625 C-190.69469147 90.83122536 -190.69469147 90.83122536 -189.02825928 90.59129333 C-185.53867836 90.08829279 -182.05052177 89.5761931 -178.5625 89.0625 C-175.08867226 88.55307264 -171.6145929 88.04575183 -168.1395874 87.54441833 C-165.97631752 87.2321487 -163.81371889 86.91518296 -161.6519165 86.59291077 C-156.49234415 85.84631824 -151.52794789 85.20572404 -146.3125 85.5 C-145.3125 86.5 -145.3125 86.5 -145.25 89.0625 C-145.270625 89.866875 -145.29125 90.67125 -145.3125 91.5 C-150.84319646 93.235459 -156.27763233 94.19577341 -162.015625 94.97265625 C-163.39328033 95.1646183 -163.39328033 95.1646183 -164.79876709 95.36045837 C-166.7348183 95.62916727 -168.67120828 95.8954454 -170.60791016 96.15942383 C-173.54022233 96.5594608 -176.47132535 96.96755588 -179.40234375 97.37695312 C-197.42435897 99.87476343 -197.42435897 99.87476343 -206.3125 100.5 C-206.6425 98.85 -206.9725 97.2 -207.3125 95.5 C-209.91582156 98.66063087 -211.45288576 101.8431652 -213 105.625 C-213.43699219 106.67945313 -213.87398437 107.73390625 -214.32421875 108.8203125 C-215.42784075 111.336722 -215.42784075 111.336722 -215.3125 113.5 C-200.47850067 111.67541808 -185.71714943 109.52623352 -170.96679688 107.1262207 C-169.64192739 106.91357233 -168.31705761 106.70092576 -166.9921875 106.48828125 C-165.82413574 106.29790283 -164.65608398 106.10752441 -163.45263672 105.91137695 C-160.68814684 105.54921201 -158.09463764 105.41748173 -155.3125 105.5 C-155.3125 108.14 -155.3125 110.78 -155.3125 113.5 C-156.56675781 113.65855469 -157.82101563 113.81710938 -159.11328125 113.98046875 C-160.95059838 114.21554056 -162.78782996 114.45128141 -164.625 114.6875 C-165.61653076 114.81479492 -166.60806152 114.94208984 -167.62963867 115.07324219 C-174.28296556 115.94013169 -180.92453084 116.87140603 -187.5625 117.84765625 C-188.35214645 117.9631633 -189.14179291 118.07867035 -189.95536804 118.19767761 C-194.73482257 118.89697541 -194.73482257 118.89697541 -199.51235962 119.60922241 C-201.76398702 119.94801526 -204.0166106 120.27930933 -206.26953125 120.609375 C-206.95188843 120.71439835 -207.63424561 120.81942169 -208.33728027 120.92762756 C-213.08538274 121.61355863 -213.08538274 121.61355863 -215.3125 120.5 C-216.4375 118.4375 -216.4375 118.4375 -217.3125 116.5 C-229.58244038 156.15554239 -230.81372252 195.89184491 -211.54467773 233.55175781 C-188.64968748 276.85767185 -156.05678798 302.11488675 -109.65625 317.0234375 C-108.4084375 317.42820312 -107.160625 317.83296875 -105.875 318.25 C-104.84503906 318.55421875 -103.81507813 318.8584375 -102.75390625 319.171875 C-97.7645402 321.88609013 -96.64889648 328.23559303 -95.12109375 333.39453125 C-94.72992163 334.69208863 -94.33864257 335.98961376 -93.94726562 337.28710938 C-93.34362296 339.31201795 -92.74256606 341.33765805 -92.14379883 343.36401367 C-91.55938941 345.33453145 -90.9657374 347.30208213 -90.37109375 349.26953125 C-90.02361084 350.44104736 -89.67612793 351.61256348 -89.31811523 352.81958008 C-88.60836033 355.63554541 -88.60836033 355.63554541 -86.3125 356.5 C-84.28105359 355.56553465 -82.27716413 354.56775224 -80.3125 353.5 C-80.6734375 352.70078125 -81.034375 351.9015625 -81.40625 351.078125 C-84.58097256 343.56461495 -86.75934505 336.69878861 -85.3125 328.5 C-83.74186207 325.39525061 -82.1348609 322.56890788 -79.3125 320.5 C-76.11029188 319.56111401 -72.9360951 318.81132334 -69.67382812 318.12695312 C-65.81917757 317.25610008 -65.81917757 317.25610008 -62.84765625 314.80859375 C-62.12474937 311.69006844 -62.28069459 308.69098776 -62.3125 305.5 C-63.89333374 305.90895508 -63.89333374 305.90895508 -65.50610352 306.32617188 C-69.4382008 307.34100912 -73.3730667 308.34472963 -77.30883789 309.34521484 C-79.00784881 309.77873661 -80.70610713 310.21521959 -82.40356445 310.65478516 C-84.85172989 311.28819141 -87.30245593 311.9106954 -89.75390625 312.53125 C-90.50523331 312.72811401 -91.25656036 312.92497803 -92.03065491 313.12780762 C-96.53612787 314.25500273 -100.63053348 314.88584022 -105.3125 314.5 C-107.92578125 312.34375 -107.92578125 312.34375 -110.3125 309.5 C-111.15167969 308.6234375 -111.99085938 307.746875 -112.85546875 306.84375 C-123.91587957 294.95013246 -133.37475067 282.04571906 -142.3125 268.5 C-142.98539062 267.48164063 -143.65828125 266.46328125 -144.3515625 265.4140625 C-156.70263382 245.55441038 -162.7767355 218.74791524 -158.6171875 195.63671875 C-155.39673438 184.12156914 -149.89371559 174.79453939 -139.39990234 168.85009766 C-131.42120459 164.71825143 -123.65535281 161.86001809 -114.92276001 159.58483887 C-103.03553783 156.45720917 -91.82554166 153.00633212 -81.3125 146.5 C-80.12889893 145.77224365 -80.12889893 145.77224365 -78.92138672 145.02978516 C-54.64870488 130.58358766 -54.64870488 130.58358766 -35.3125 110.5 C-35.960979 110.48541748 -36.60945801 110.47083496 -37.27758789 110.45581055 C-65.40361386 109.75110357 -85.39150842 105.47003741 -106.3125 85.5 C-106.92609375 84.96117187 -107.5396875 84.42234375 -108.171875 83.8671875 C-112.13259089 80.25167162 -115.08550539 76.10494007 -118 71.625 C-118.36875244 71.06014893 -118.73750488 70.49529785 -119.11743164 69.91333008 C-124.207776 61.82920611 -127.01824079 53.69117995 -129 44.375 C-129.31807617 42.94994141 -129.31807617 42.94994141 -129.64257812 41.49609375 C-130.52870784 37.46518191 -131.35213011 33.48340572 -131.83203125 29.3828125 C-131.99058594 28.43148437 -132.14914063 27.48015625 -132.3125 26.5 C-133.3025 26.005 -133.3025 26.005 -134.3125 25.5 Z " fill="#000000" transform="translate(267.3125,127.5)"/>
<path d="M0 0 C2.23447235 2.9412839 3.112145 6.29420135 4.17260742 9.78320312 C4.41251907 10.54870483 4.65243073 11.31420654 4.89961243 12.10290527 C5.40397447 13.71875794 5.90380852 15.33602997 6.39941406 16.95458984 C7.15903334 19.43339875 7.93313957 21.90731709 8.7097168 24.38085938 C9.19820533 25.95220738 9.68586392 27.5238137 10.17260742 29.09570312 C10.40380783 29.83639038 10.63500824 30.57707764 10.87321472 31.34020996 C11.7793596 34.31334816 12.47338867 36.81233882 12.47338867 39.93945312 C13.10937988 40.09655762 13.74537109 40.25366211 14.40063477 40.41552734 C22.19300809 42.43038648 29.6169529 45.10979842 37.09838867 48.06445312 C37.71045166 48.3058905 38.32251465 48.54732788 38.953125 48.79608154 C66.70252756 59.79189529 88.48276652 75.87138472 106.47338867 99.93945312 C107.06144287 100.7208667 107.06144287 100.7208667 107.66137695 101.51806641 C122.75434937 121.69102643 134.38751272 143.38294365 140.47338867 167.93945312 C140.6512793 168.63200195 140.82916992 169.32455078 141.01245117 170.03808594 C151.89632583 214.3294092 138.05003676 263.69631939 115.47338867 301.93945312 C112.41434987 306.81588551 109.03772325 311.42266181 105.47338867 315.93945312 C104.80605713 316.78612549 104.80605713 316.78612549 104.12524414 317.64990234 C74.89140758 354.29864452 23.51285733 378.27548452 -22.40161133 383.68164062 C-52.09942128 386.75297992 -77.36089357 382.39038169 -105.02661133 371.37695312 C-106.19071533 370.91812744 -107.35481934 370.45930176 -108.55419922 369.98657227 C-119.52530371 365.47552032 -119.52530371 365.47552032 -122.52661133 360.93945312 C-123.82211166 354.02709819 -120.69218273 347.14922359 -118.58911133 340.62695312 C-118.17860893 339.33539642 -117.76845813 338.04372793 -117.35864258 336.75195312 C-116.10109943 332.80791543 -114.81756704 328.87266291 -113.52661133 324.93945312 C-113.14230957 323.76592285 -112.75800781 322.59239258 -112.36206055 321.38330078 C-104.07800543 296.30012038 -95.1004477 271.14936496 -77.52661133 250.93945312 C-77.01614258 250.30910156 -76.50567383 249.67875 -75.97973633 249.02929688 C-64.05663306 234.44593132 -46.63897191 223.95811962 -30.73071289 214.28076172 C-29.33813467 213.43330661 -27.94897213 212.58018972 -26.56469727 211.71923828 C-16.10245484 205.21878034 -5.3396862 201.57319794 6.44213867 198.25585938 C7.49804199 197.95558838 8.55394531 197.65531738 9.6418457 197.34594727 C11.72797681 196.75619511 13.81739928 196.17792379 15.91040039 195.61303711 C25.04793192 193.0525697 34.54069839 189.60328093 39.47338867 180.93945312 C45.87248821 163.77823163 41.84017436 142.29805075 34.47338867 125.93945312 C26.91779597 110.6896999 16.2426004 97.2982589 5.41088867 84.27148438 C3.40043125 81.85163946 1.43226042 79.40116026 -0.52661133 76.93945312 C-8.5805742 78.64878357 -16.6102238 80.39772181 -24.56176758 82.54101562 C-25.57360107 82.81349121 -26.58543457 83.0859668 -27.62792969 83.36669922 C-29.60643152 83.9050562 -31.58264077 84.45192877 -33.55615234 85.00830078 C-39.03339909 86.49847989 -43.85580345 87.69556084 -49.52661133 86.93945312 C-52.49145508 85.20117188 -52.49145508 85.20117188 -54.52661133 81.93945312 C-55.22736682 77.86002767 -55.17819346 73.88103014 -55.08911133 69.75195312 C-55.10006836 68.66591797 -55.11102539 67.57988281 -55.12231445 66.4609375 C-55.05450685 58.93429402 -54.19887342 51.22968669 -49.11499023 45.2902832 C-43.47584162 40.29805772 -37.73523727 39.53624569 -30.52661133 38.93945312 C-30.87594727 38.11960938 -31.2252832 37.29976562 -31.58520508 36.45507812 C-32.04024414 35.37742188 -32.4952832 34.29976562 -32.96411133 33.18945312 C-33.41657227 32.12210938 -33.8690332 31.05476563 -34.33520508 29.95507812 C-36.4363404 24.63679461 -37.7430562 19.47639882 -35.80786133 13.84960938 C-32.4057065 6.48284671 -27.57823892 3.61952264 -20.14770508 0.82617188 C-5.79842575 -4.02820429 -5.79842575 -4.02820429 0 0 Z M-13.52661133 16.93945312 C-15.55805774 17.87391847 -17.5619472 18.87170088 -19.52661133 19.93945312 C-18.98520508 21.12087891 -18.98520508 21.12087891 -18.43286133 22.32617188 C-15.07256829 30.21352637 -12.93596149 37.34762187 -14.52661133 45.93945312 C-16.35983981 50.07670027 -18.79042435 52.21182784 -22.94067383 53.95117188 C-25.45453707 54.72963406 -27.96002631 55.36124353 -30.52661133 55.93945312 C-33.94133056 56.8240534 -33.94133056 56.8240534 -36.52661133 57.93945312 C-37.68436193 61.41270493 -37.59527785 64.3001276 -37.52661133 67.93945312 C-36.47272217 67.66681641 -35.41883301 67.39417969 -34.33300781 67.11328125 C-30.40091053 66.098444 -26.46604463 65.09472349 -22.53027344 64.09423828 C-20.83126251 63.66071651 -19.1330042 63.22423353 -17.43554688 62.78466797 C-14.98738144 62.15126172 -12.5366554 61.52875772 -10.08520508 60.90820312 C-9.33387802 60.71133911 -8.58255096 60.5144751 -7.80845642 60.31164551 C-3.30320012 59.1845046 0.79173676 58.55123283 5.47338867 58.93945312 C8.10620117 61.12304688 8.10620117 61.12304688 10.47338867 63.93945312 C11.25456055 64.73480469 12.03573242 65.53015625 12.84057617 66.34960938 C39.54779796 94.59603242 60.61356238 128.43472913 59.71948242 168.37695312 C59.22183399 180.39974321 55.18285773 191.76970048 46.41088867 200.25195312 C37.29013401 207.54337857 26.28505542 210.8280205 15.16018677 213.77835083 C-14.14060422 221.63521886 -44.4851832 238.66152108 -64.52661133 261.93945312 C-64.52661133 262.26945313 -64.52661133 262.59945312 -64.52661133 262.93945312 C-63.91366211 262.95403564 -63.30071289 262.96861816 -62.66918945 262.98364258 C-33.24106351 263.76226633 -11.23544223 269.19072493 9.83276367 290.95117188 C24.12904631 307.12965741 29.78457307 325.77964337 32.47338867 346.93945312 C35.34459914 348.25092505 35.34459914 348.25092505 37.61132812 347.11010742 C38.83662231 346.44362183 38.83662231 346.44362183 40.08666992 345.76367188 C40.99819824 345.2705249 41.90972656 344.77737793 42.84887695 344.26928711 C43.81809082 343.72731689 44.78730469 343.18534668 45.78588867 342.62695312 C47.27451416 341.80142944 47.27451416 341.80142944 48.79321289 340.95922852 C76.99242112 325.08141982 96.78114932 303.14904597 110.47338867 273.93945312 C111.00319336 272.83472656 111.53299805 271.73 112.07885742 270.59179688 C114.64962121 265.47853964 114.64962121 265.47853964 115.47338867 259.93945312 C102.08507252 261.60962536 88.74031691 263.43459715 75.43286133 265.66894531 C69.04911535 266.69926203 62.93877435 267.17366071 56.47338867 266.93945312 C55.97838867 264.46445312 55.97838867 264.46445312 55.47338867 261.93945312 C58.51690799 259.91044024 59.98501703 259.51166333 63.50805664 258.9621582 C65.04512772 258.71729424 65.04512772 258.71729424 66.61325073 258.46748352 C68.27265182 258.21577644 68.27265182 258.21577644 69.96557617 257.95898438 C71.1036673 257.78187424 72.24175842 257.6047641 73.41433716 257.42228699 C75.82293093 257.04967505 78.23212172 256.68090515 80.6418457 256.31567383 C84.32853857 255.75497209 88.01226352 255.17714132 91.69604492 254.59765625 C94.03572895 254.23789205 96.37556806 253.87913462 98.71557617 253.52148438 C99.8177951 253.34760696 100.92001404 253.17372955 102.05563354 252.99458313 C103.08665192 252.84079697 104.11767029 252.6870108 105.17993164 252.52856445 C106.08355438 252.39025711 106.98717712 252.25194977 107.91818237 252.10945129 C110.6746123 251.92606569 112.82615721 252.15660943 115.47338867 252.93945312 C116.78588867 255.00195312 116.78588867 255.00195312 117.47338867 256.93945312 C130.05750745 216.26850933 130.62073059 176.66568752 110.72338867 138.25195312 C103.22044308 124.24788792 94.00829326 111.78702547 83.47338867 99.93945312 C83.01432129 99.41335449 82.55525391 98.88725586 82.08227539 98.34521484 C62.58890531 76.01147981 36.54641497 65.07962993 8.71655273 56.27099609 C7.95052734 56.01979004 7.18450195 55.76858398 6.39526367 55.50976562 C5.73107422 55.30109863 5.06688477 55.09243164 4.38256836 54.87744141 C0.43150726 52.93626791 -1.25132545 50.63278242 -2.86694336 46.5637207 C-3.26859412 45.24087017 -3.65712857 43.91398632 -4.03442383 42.58398438 C-4.24598114 41.8817424 -4.45753845 41.17950043 -4.67550659 40.45597839 C-5.34633344 38.2247041 -6.00022074 35.98897187 -6.65161133 33.75195312 C-7.31189174 31.5048388 -7.97584402 29.25904336 -8.6491394 27.01579285 C-9.06676547 25.62259253 -9.47661596 24.22703341 -9.87796021 22.82905579 C-10.36941502 21.18073967 -10.9411199 19.55675756 -11.52661133 17.93945312 C-12.18661133 17.60945313 -12.84661133 17.27945312 -13.52661133 16.93945312 Z M-74.52661133 275.93945312 C-83.5810408 293.39812698 -90.73389764 311.10940039 -96.96411133 329.75195312 C-97.23340454 330.55515991 -97.50269775 331.3583667 -97.78015137 332.18591309 C-98.55462738 334.50412977 -99.32151895 336.82469328 -100.08520508 339.14648438 C-100.31713058 339.84270401 -100.54905609 340.53892365 -100.78800964 341.25624084 C-102.0487437 345.13047904 -102.96862656 348.90337634 -103.52661133 352.93945312 C-67.48820579 369.72867618 -30.44970635 372.47921406 7.28979492 359.31445312 C13.98656138 356.87550794 13.98656138 356.87550794 20.47338867 353.93945312 C19.54520246 329.853021 11.35656844 309.48577661 -6.25708008 292.80664062 C-22.06898936 278.52954322 -39.37284036 275.74841275 -60.02661133 275.87695312 C-61.43546391 275.88197779 -62.84431822 275.88653899 -64.25317383 275.890625 C-67.67769771 275.90235282 -71.1021318 275.91876621 -74.52661133 275.93945312 Z " fill="#000000" transform="translate(344.526611328125,11.060546875)"/>
<path d="M0 0 C0.66 0.66 1.32 1.32 2 2 C1.625 5.125 1.625 5.125 1 8 C-10.06275486 10.02831864 -21.13717089 11.82476463 -32.27880859 13.36254883 C-34.65938183 13.69226194 -37.03864792 14.03052069 -39.41796875 14.36914062 C-40.95826213 14.58384474 -42.4986243 14.79805616 -44.0390625 15.01171875 C-44.73705963 15.11167648 -45.43505676 15.21163422 -46.15420532 15.31462097 C-50.46605903 15.90060154 -54.65113233 16.2597099 -59 16 C-61 14 -61 14 -61.25 11.5 C-61 9 -61 9 -59 7 C-56.96655273 6.4937439 -56.96655273 6.4937439 -54.43359375 6.13037109 C-53.48500488 5.99037689 -52.53641602 5.85038269 -51.55908203 5.70614624 C-50.52895996 5.56335236 -49.49883789 5.42055847 -48.4375 5.2734375 C-47.37644043 5.12089508 -46.31538086 4.96835266 -45.22216797 4.81118774 C-42.96981754 4.48950897 -40.71686359 4.17203271 -38.46337891 3.85839844 C-35.040249 3.38061772 -31.61974213 2.88668241 -28.19921875 2.390625 C-26.00795132 2.07974906 -23.8165488 1.76982362 -21.625 1.4609375 C-20.61107178 1.31409515 -19.59714355 1.16725281 -18.55249023 1.01596069 C-5.83830747 -0.72951767 -5.83830747 -0.72951767 0 0 Z " fill="#000000" transform="translate(450,284)"/>
<path d="M0 0 C2 2 2 2 2.25 4.5 C2 7 2 7 0 9 C-1.95320129 9.65811157 -1.95320129 9.65811157 -4.37036133 10.23681641 C-5.2750264 10.45689362 -6.17969147 10.67697083 -7.11177063 10.90371704 C-8.09195663 11.13400604 -9.07214264 11.36429504 -10.08203125 11.6015625 C-11.08836105 11.8428891 -12.09469086 12.0842157 -13.1315155 12.33285522 C-15.26336093 12.84225057 -17.39606514 13.34806308 -19.52954102 13.85058594 C-22.79095504 14.61991778 -26.04888939 15.40282038 -29.30664062 16.1875 C-31.37740961 16.68050542 -33.44836731 17.17271897 -35.51953125 17.6640625 C-36.49364456 17.89839996 -37.46775787 18.13273743 -38.47138977 18.37417603 C-39.38551132 18.58794891 -40.29963287 18.8017218 -41.24145508 19.02197266 C-42.04150467 19.21135406 -42.84155426 19.40073547 -43.66584778 19.59585571 C-46.19350964 20.03350502 -48.44081382 20.20464631 -51 20 C-53 18 -53 18 -53.4375 15.5625 C-53 13 -53 13 -51.06420898 11.49487305 C-47.00201395 9.51313293 -42.92405462 8.54011415 -38.53515625 7.51953125 C-37.62422714 7.30181564 -36.71329803 7.08410004 -35.77476501 6.85978699 C-33.85351112 6.40278236 -31.93124544 5.95001307 -30.00805664 5.5012207 C-27.07347315 4.81506571 -24.14312573 4.11266931 -21.21289062 3.40820312 C-19.34137661 2.96516983 -17.46963875 2.52308085 -15.59765625 2.08203125 C-14.7256105 1.87270462 -13.85356476 1.66337799 -12.95509338 1.44770813 C-8.58848715 0.43840875 -4.51114334 -0.45578118 0 0 Z " fill="#000000" transform="translate(465,240)"/>
<path d="M0 0 C0.495 0.495 0.495 0.495 1 1 C0.71269945 3.33944736 0.38063221 5.6739143 0 8 C-6.27768528 9.578056 -12.55847629 11.14325592 -18.84155273 12.69970703 C-20.97704908 13.23030333 -23.11182692 13.76380042 -25.24584961 14.30029297 C-28.31959081 15.07248896 -31.39579481 15.83409534 -34.47265625 16.59375 C-35.42084732 16.83436157 -36.36903839 17.07497314 -37.34596252 17.32287598 C-42.34580522 18.54577741 -46.84854229 19.47814073 -52 19 C-52.66 18.34 -53.32 17.68 -54 17 C-53.625 13.875 -53.625 13.875 -53 11 C-43.03875669 8.31044615 -33.06190861 5.69572698 -23.04394531 3.2253418 C-21.57901787 2.86207805 -20.11516593 2.49445341 -18.65234375 2.12280273 C-16.49716312 1.57569284 -14.33899227 1.04228474 -12.1796875 0.51171875 C-10.91882324 0.19678467 -9.65795898 -0.11814941 -8.35888672 -0.44262695 C-5.12108015 -0.97990798 -3.10723106 -0.965761 0 0 Z " fill="#000000" transform="translate(99,253)"/>
<path d="M0 0 C2 3 2 3 1.625 5.6875 C1.41875 6.450625 1.2125 7.21375 1 8 C-3.9612689 9.52014797 -8.84729672 10.55964233 -13.98828125 11.2890625 C-14.73152145 11.39721283 -15.47476166 11.50536316 -16.24052429 11.61679077 C-17.80411838 11.84270463 -19.36807707 12.06610794 -20.93237305 12.28710938 C-23.29676686 12.62276647 -25.65906637 12.97105341 -28.02148438 13.3203125 C-45.56077558 15.86116654 -45.56077558 15.86116654 -51 15 C-51.66 14.34 -52.32 13.68 -53 13 C-52.8125 10.5 -52.8125 10.5 -52 8 C-49.15767618 6.10511745 -48.12390002 5.67846233 -44.91503906 5.22216797 C-43.68796234 5.04220779 -43.68796234 5.04220779 -42.43609619 4.85861206 C-41.5548407 4.73769196 -40.67358521 4.61677185 -39.765625 4.4921875 C-38.85423767 4.36184113 -37.94285034 4.23149475 -37.00384521 4.09719849 C-35.07437282 3.82299424 -33.14435961 3.55257285 -31.21386719 3.28564453 C-28.2739613 2.87831984 -25.33618695 2.45772276 -22.3984375 2.03515625 C-20.52094554 1.77003751 -18.64334452 1.50568974 -16.765625 1.2421875 C-15.89246643 1.11721893 -15.01930786 0.99225037 -14.11968994 0.86349487 C-4.75405739 -0.41811681 -4.75405739 -0.41811681 0 0 Z " fill="#000000" transform="translate(439,302)"/>
<path d="M0 0 C0.66 1.65 1.32 3.3 2 5 C-1.05185175 9.0852886 -3.91592458 9.66951705 -8.70285034 10.36798096 C-9.5820816 10.47857849 -10.46131287 10.58917603 -11.3671875 10.703125 C-12.27953156 10.83064148 -13.19187561 10.95815796 -14.13186646 11.08953857 C-17.04434056 11.49212396 -19.95939768 11.8708129 -22.875 12.25 C-24.82962785 12.51938055 -26.78405821 12.79019828 -28.73828125 13.0625 C-30.61440634 13.31900625 -32.49070371 13.57425617 -34.3671875 13.828125 C-35.6799617 14.00616669 -35.6799617 14.00616669 -37.01925659 14.18780518 C-48.82874093 15.71786846 -48.82874093 15.71786846 -51.9375 13.8125 C-53 12 -53 12 -52.6875 9.3125 C-52.460625 8.549375 -52.23375 7.78625 -52 7 C-47.0387311 5.47985203 -42.15270328 4.44035767 -37.01171875 3.7109375 C-36.26847855 3.60278717 -35.52523834 3.49463684 -34.75947571 3.38320923 C-33.19588162 3.15729537 -31.63192293 2.93389206 -30.06762695 2.71289062 C-27.70323314 2.37723353 -25.34093363 2.02894659 -22.97851562 1.6796875 C-15.25575893 0.56278385 -7.82615291 -0.29828868 0 0 Z " fill="#000000" transform="translate(124,195)"/>
<path d="M0 0 C1 1 1 1 1.1875 3.9375 C1 7 1 7 -1 9 C-2.75665283 9.54421997 -2.75665283 9.54421997 -4.89550781 9.96142578 C-5.69684143 10.12144073 -6.49817505 10.28145569 -7.3237915 10.44631958 C-8.19147156 10.61098724 -9.05915161 10.77565491 -9.953125 10.9453125 C-11.29259186 11.2074202 -11.29259186 11.2074202 -12.65911865 11.474823 C-14.5514816 11.8432354 -16.44459585 12.20780615 -18.33837891 12.56884766 C-21.22633428 13.12047958 -24.11125804 13.68621162 -26.99609375 14.25390625 C-28.83577314 14.61022466 -30.67561217 14.96572002 -32.515625 15.3203125 C-33.80499969 15.57338669 -33.80499969 15.57338669 -35.12042236 15.83157349 C-39.4444576 16.64815498 -43.58150285 17.40129428 -48 17 C-50 15 -50 15 -50.25 12.5 C-50 10 -50 10 -48 8 C-45.02503891 7.26276529 -42.08925597 6.62746719 -39.08203125 6.0546875 C-38.19142502 5.87994904 -37.30081879 5.70521057 -36.38322449 5.525177 C-34.49506622 5.15672919 -32.60614761 4.79216011 -30.71655273 4.43115234 C-27.83943885 3.88015903 -24.96559585 3.31409283 -22.09179688 2.74609375 C-20.25538537 2.38971154 -18.41880181 2.03421451 -16.58203125 1.6796875 C-15.72760941 1.51097137 -14.87318756 1.34225525 -13.99287415 1.16842651 C-9.24509904 0.27173976 -4.83409488 -0.2731847 0 0 Z " fill="#000000" transform="translate(93,274)"/>
<path d="M0 0 C2 2 2 2 2.25 4.5 C2 7 2 7 0 9 C-2.97496109 9.73723471 -5.91074403 10.37253281 -8.91796875 10.9453125 C-9.80857498 11.12005096 -10.69918121 11.29478943 -11.61677551 11.474823 C-13.50493378 11.84327081 -15.39385239 12.20783989 -17.28344727 12.56884766 C-20.16056115 13.11984097 -23.03440415 13.68590717 -25.90820312 14.25390625 C-27.74461463 14.61028846 -29.58119819 14.96578549 -31.41796875 15.3203125 C-32.27239059 15.48902863 -33.12681244 15.65774475 -34.00712585 15.83157349 C-38.75490096 16.72826024 -43.16590512 17.2731847 -48 17 C-49 16 -49 16 -49.1875 13.0625 C-49 10 -49 10 -47 8 C-45.24334717 7.45578003 -45.24334717 7.45578003 -43.10449219 7.03857422 C-42.30315857 6.87855927 -41.50182495 6.71854431 -40.6762085 6.55368042 C-39.80852844 6.38901276 -38.94084839 6.22434509 -38.046875 6.0546875 C-37.15389709 5.87994904 -36.26091919 5.70521057 -35.34088135 5.525177 C-33.4485184 5.1567646 -31.55540415 4.79219385 -29.66162109 4.43115234 C-26.77366572 3.87952042 -23.88874196 3.31378838 -21.00390625 2.74609375 C-19.16422686 2.38977534 -17.32438783 2.03427998 -15.484375 1.6796875 C-14.62479187 1.51097137 -13.76520874 1.34225525 -12.87957764 1.16842651 C-8.5555424 0.35184502 -4.41849715 -0.40129428 0 0 Z " fill="#000000" transform="translate(467,221)"/>
<path d="M0 0 C1 1 1 1 1.375 3.375 C1 6 1 6 -1.05493164 7.55004883 C-4.4585991 9.22578298 -7.80634989 10.07433014 -11.49609375 10.82421875 C-12.20725845 10.97534622 -12.91842316 11.12647369 -13.65113831 11.28218079 C-15.1487346 11.59825798 -16.64729453 11.90979978 -18.14672852 12.21704102 C-20.42920379 12.6857962 -22.70776312 13.17083451 -24.98632812 13.65820312 C-26.4477129 13.96451543 -27.90929556 14.26988548 -29.37109375 14.57421875 C-30.04627548 14.71792404 -30.72145721 14.86162933 -31.417099 15.00968933 C-35.3311773 15.80249268 -39.00864148 16.32270871 -43 16 C-43.66 15.34 -44.32 14.68 -45 14 C-44.625 10.875 -44.625 10.875 -44 8 C-34.86628663 5.37991235 -25.66431904 3.18338377 -16.375 1.1875 C-15.33214844 0.95651611 -14.28929687 0.72553223 -13.21484375 0.48754883 C-12.22355469 0.2789624 -11.23226562 0.07037598 -10.2109375 -0.14453125 C-8.88521729 -0.42840698 -8.88521729 -0.42840698 -7.53271484 -0.71801758 C-4.76232348 -1.02646196 -2.67841192 -0.73757185 0 0 Z " fill="#000000" transform="translate(89,292)"/>
<path d="M0 0 C1.4375 1.8125 1.4375 1.8125 2 4 C1.54223633 6.00292969 1.54223633 6.00292969 0 8 C-2.76006449 8.92553516 -5.27675964 9.58171922 -8.11328125 10.140625 C-9.32312935 10.39848785 -9.32312935 10.39848785 -10.55741882 10.66156006 C-12.26472633 11.02223922 -13.97377514 11.37475768 -15.68432617 11.71972656 C-18.29538737 12.24654727 -20.90063649 12.7966621 -23.50585938 13.3515625 C-25.16637882 13.69929408 -26.8271782 14.04569209 -28.48828125 14.390625 C-29.26553055 14.55306702 -30.04277985 14.71550903 -30.84358215 14.88287354 C-38.36443251 16.39184234 -38.36443251 16.39184234 -42 16 C-44 14 -44 14 -44.25 11.5 C-44 9 -44 9 -42 7 C-39.2939711 6.25382423 -36.62767645 5.60670439 -33.88671875 5.01953125 C-33.08015335 4.84242111 -32.27358795 4.66531097 -31.44258118 4.48283386 C-29.73443173 4.11018554 -28.0254321 3.74141647 -26.31567383 3.3762207 C-23.70551572 2.81636422 -21.09990732 2.23811129 -18.49414062 1.65820312 C-16.83357717 1.29835211 -15.17277678 0.93959236 -13.51171875 0.58203125 C-12.73446945 0.40815384 -11.95722015 0.23427643 -11.15641785 0.05513 C-7.16888634 -0.78040359 -3.90615988 -1.35179361 0 0 Z " fill="#000000" transform="translate(466,205)"/>
<path d="M0 0 C0 1.98 0 3.96 0 6 C-6.86450822 8.83897075 -13.93081124 10.6247004 -21.14624023 12.3269043 C-23.19700925 12.81476216 -25.24170578 13.32416172 -27.28710938 13.83398438 C-28.60124466 14.14717003 -29.9156883 14.45906522 -31.23046875 14.76953125 C-33.00006958 15.19649292 -33.00006958 15.19649292 -34.80541992 15.63208008 C-38.28405622 16.03271477 -39.97027177 15.69965433 -43 14 C-43.9375 12.0625 -43.9375 12.0625 -44 10 C-41.48075335 6.22113003 -39.16027669 5.96197864 -34.98046875 4.9921875 C-34.28488358 4.82123566 -33.5892984 4.65028381 -32.87263489 4.47415161 C-30.64677986 3.93001943 -28.41735517 3.40247194 -26.1875 2.875 C-24.69700828 2.51277604 -23.20677024 2.14950654 -21.71679688 1.78515625 C-17.81562372 0.83639696 -13.91241858 -0.09855148 -10 -1 C-9.08001221 -1.22026855 -8.16002441 -1.44053711 -7.2121582 -1.66748047 C-4.31623856 -2.10277928 -2.59298082 -1.25944783 0 0 Z " fill="#000000" transform="translate(425,321)"/>
<path d="M0 0 C1 1 1 1 1.0625 4.0625 C1.041875 5.031875 1.02125 6.00125 1 7 C-5.51966313 9.95013976 -12.11557421 11.66204374 -19.07080078 13.27197266 C-21.1297388 13.75110275 -23.18385071 14.24803514 -25.23828125 14.74609375 C-26.55703684 15.05577467 -27.8760396 15.36440532 -29.1953125 15.671875 C-30.38141113 15.9512793 -31.56750977 16.23068359 -32.78955078 16.51855469 C-35.93249917 16.98987744 -37.97921615 16.91237748 -41 16 C-42 15 -42 15 -42.0625 11.9375 C-42.041875 10.968125 -42.02125 9.99875 -42 9 C-33.9753396 6.28978451 -25.87116734 4.16230391 -17.625 2.25 C-16.68640137 2.02739502 -15.74780273 1.80479004 -14.78076172 1.57543945 C-9.74373227 0.43212796 -5.16799353 -0.36217744 0 0 Z " fill="#000000" transform="translate(129,176)"/>
<path d="M0 0 C2 3 2 3 1.625 5.6875 C1.41875 6.450625 1.2125 7.21375 1 8 C-26.43853591 16.69889503 -26.43853591 16.69889503 -35 16 C-36.125 10.25 -36.125 10.25 -35 8 C-32.9520555 7.26543351 -30.86619636 6.63577273 -28.76953125 6.0546875 C-27.82747078 5.7925798 -27.82747078 5.7925798 -26.86637878 5.525177 C-25.53333831 5.15656935 -24.19917389 4.79200646 -22.86401367 4.43115234 C-20.83496942 3.88109132 -18.81104567 3.3146235 -16.78710938 2.74609375 C-15.48985901 2.38962027 -14.19234051 2.03412084 -12.89453125 1.6796875 C-11.71737549 1.35726074 -10.54021973 1.03483398 -9.32739258 0.70263672 C-6.05086046 0.01074007 -3.33110668 -0.36163714 0 0 Z " fill="#000000" transform="translate(83,310)"/>
<path d="M0 0 C0.66 0.66 1.32 1.32 2 2 C1.625 5.125 1.625 5.125 1 8 C-2.33268782 8.96058762 -5.66626505 9.91805338 -9 10.875 C-9.93457031 11.14441406 -10.86914062 11.41382813 -11.83203125 11.69140625 C-27.91987928 16.30400604 -27.91987928 16.30400604 -34 16 C-35.1875 13.75 -35.1875 13.75 -36 11 C-34.47724437 8.09351843 -33.33619976 7.1353598 -30.27612305 5.90332031 C-29.19886963 5.63100586 -28.12161621 5.35869141 -27.01171875 5.078125 C-25.83029297 4.77519531 -24.64886719 4.47226563 -23.43164062 4.16015625 C-21.57829102 3.70962891 -21.57829102 3.70962891 -19.6875 3.25 C-17.85155273 2.77626953 -17.85155273 2.77626953 -15.97851562 2.29296875 C-5.23217426 -0.40676464 -5.23217426 -0.40676464 0 0 Z " fill="#000000" transform="translate(463,186)"/>
<path d="M0 0 C2.9765625 1.54296875 2.9765625 1.54296875 4.47265625 5.02734375 C4.81332066 6.4430231 5.12628629 7.86559875 5.4140625 9.29296875 C5.58615234 9.99679687 5.75824219 10.700625 5.93554688 11.42578125 C6.90739772 15.7291208 7.1776404 19.20610368 5.9765625 23.54296875 C3.9765625 25.54296875 3.9765625 25.54296875 0.5390625 25.85546875 C-3.0234375 25.54296875 -3.0234375 25.54296875 -4.63671875 24.4140625 C-8.22655405 19.57031289 -9.48430976 11.38370415 -9.0234375 5.41796875 C-8.0234375 2.54296875 -8.0234375 2.54296875 -5.8359375 0.48046875 C-3.0234375 -0.45703125 -3.0234375 -0.45703125 0 0 Z " fill="#000000" transform="translate(417.0234375,413.45703125)"/>
<path d="M0 0 C4.21610129 3.01597345 4.48427282 7.98072869 5.484375 12.7578125 C6.11818436 16.74312891 6.32568624 19.18865205 5 23 C2.8125 25.0625 2.8125 25.0625 0 26 C-3.0234375 25.54296875 -3.0234375 25.54296875 -6 24 C-7.18028571 21.25113615 -7.85806419 19.12400161 -8.4375 16.25 C-8.60958984 15.54617187 -8.78167969 14.84234375 -8.95898438 14.1171875 C-9.9255804 9.83711621 -10.29217163 6.29438135 -9 2 C-5.53076119 -0.31282587 -4.07794425 -0.42478586 0 0 Z " fill="#000000" transform="translate(98,73)"/>
<path d="M0 0 C3.375 0.9375 3.375 0.9375 5.375 3.9375 C5.640625 6.86328125 5.640625 6.86328125 5.625 10.25 C5.63015625 11.35988281 5.6353125 12.46976562 5.640625 13.61328125 C5.36416243 17.07312894 4.75283177 19.75470862 3.375 22.9375 C0.375 24.9375 0.375 24.9375 -2.625 24.875 C-5.625 23.9375 -5.625 23.9375 -7.31640625 21.8515625 C-8.99822218 18.10638434 -8.85019241 15.45536983 -8.5625 11.375 C-8.48902344 10.07433594 -8.41554688 8.77367187 -8.33984375 7.43359375 C-7.24679828 2.08782491 -5.55495891 -0.09577515 0 0 Z " fill="#000000" transform="translate(418.625,457.0625)"/>
<path d="M0 0 C12.0809374 0.43547565 12.0809374 0.43547565 17.109375 2.55859375 C19.109375 5.55859375 19.109375 5.55859375 18.921875 9.12109375 C18.109375 12.55859375 18.109375 12.55859375 15.109375 14.55859375 C11.9296875 14.60546875 11.9296875 14.60546875 8.234375 14.30859375 C7.02007812 14.2209375 5.80578125 14.13328125 4.5546875 14.04296875 C1.36133007 13.59401601 -1.0446159 13.05404217 -3.890625 11.55859375 C-5.390625 8.74609375 -5.390625 8.74609375 -5.890625 5.55859375 C-4.45440651 1.99926966 -3.8554524 0.74504013 0 0 Z " fill="#000000" transform="translate(388.890625,441.44140625)"/>
<path d="M0 0 C1.65128906 0.15855469 1.65128906 0.15855469 3.3359375 0.3203125 C6.62022546 0.87419479 9.53736912 1.62719637 12.625 2.875 C14.18438978 5.99377956 13.9857834 8.44755771 13.625 11.875 C10.54962943 14.56296924 8.85508785 14.87731477 4.7421875 14.8359375 C3.32568298 14.65920416 1.9114479 14.4633883 0.5 14.25 C-0.21542969 14.16621094 -0.93085937 14.08242187 -1.66796875 13.99609375 C-4.601114 13.59587019 -6.90429749 13.21094871 -9.33984375 11.47265625 C-11.03670985 8.85371952 -10.80765487 6.90358409 -10.375 3.875 C-7.24560849 -0.35005376 -5.09442759 -0.55813076 0 0 Z " fill="#000000" transform="translate(114.375,56.125)"/>
<path d="M0 0 C1.91015625 0.23046875 1.91015625 0.23046875 3.91015625 2.23046875 C5.03441774 6.14124338 4.97081837 9.75214034 4.72265625 13.79296875 C4.63951172 15.46552734 4.63951172 15.46552734 4.5546875 17.171875 C3.7949658 20.77709978 2.8617509 22.06843892 -0.08984375 24.23046875 C-3.71484375 24.16796875 -3.71484375 24.16796875 -7.08984375 23.23046875 C-9.52713668 19.57452935 -9.35822849 17.70346087 -9.33984375 13.35546875 C-9.345 12.14117187 -9.35015625 10.926875 -9.35546875 9.67578125 C-8.76910335 2.07027715 -7.47161026 0.149161 0 0 Z " fill="#000000" transform="translate(97.08984375,30.76953125)"/>
<path d="M0 0 C1.13824219 -0.01417969 2.27648437 -0.02835938 3.44921875 -0.04296875 C6.3125 0.1875 6.3125 0.1875 8.3125 2.1875 C8.95089286 7.93303571 8.95089286 7.93303571 8.3125 10.1875 C2.91802509 14.55349558 -4.00886699 14.57755127 -10.6875 14.1875 C-13.73882342 12.93107271 -14.07277471 12.22318354 -15.6875 9.1875 C-15.6875 6 -15.6875 6 -14.6875 3.1875 C-9.95668242 0.03362161 -5.60012163 0.03192772 0 0 Z " fill="#000000" transform="translate(78.6875,56.8125)"/>
<path d="M0 0 C2 1.6875 2 1.6875 3 4 C2.875 7.125 2.875 7.125 2 10 C-2.54314882 13.02876588 -6.74380938 13.16907984 -12.125 13.25 C-13.67574219 13.28867187 -13.67574219 13.28867187 -15.2578125 13.328125 C-18 13 -18 13 -19.84765625 11.671875 C-21.62174446 9.09794362 -21.31660006 7.03936053 -21 4 C-19 1 -19 1 -16.42578125 0.234375 C-5.11892146 -1.52478512 -5.11892146 -1.52478512 0 0 Z " fill="#000000" transform="translate(446,442)"/>
<path d="M0 0 C2 2 2 2 2.125 4.625 C2.08375 5.40875 2.0425 6.1925 2 7 C-17.34049352 15.97780934 -17.34049352 15.97780934 -25 15 C-27 13 -27 13 -27.1875 10.625 C-25.51941564 6.93765563 -23.34432648 6.41395134 -19.67578125 4.98046875 C-18.35126953 4.49513672 -18.35126953 4.49513672 -17 4 C-16.06542969 3.62488281 -15.13085938 3.24976563 -14.16796875 2.86328125 C-4.89308351 -0.75278208 -4.89308351 -0.75278208 0 0 Z " fill="#000000" transform="translate(79,330)"/>
<path d="M0 0 C0.66 0.66 1.32 1.32 2 2 C1.625 5.125 1.625 5.125 1 8 C-2.20278893 9.18229179 -5.4130082 10.34296818 -8.625 11.5 C-9.98044922 12.00080078 -9.98044922 12.00080078 -11.36328125 12.51171875 C-20.18781198 15.66793777 -20.18781198 15.66793777 -25 15 C-25.66 14.34 -26.32 13.68 -27 13 C-26.625 9.875 -26.625 9.875 -26 7 C-22.79721107 5.81770821 -19.5869918 4.65703182 -16.375 3.5 C-15.47136719 3.16613281 -14.56773437 2.83226562 -13.63671875 2.48828125 C-4.81218802 -0.66793777 -4.81218802 -0.66793777 0 0 Z " fill="#000000" transform="translate(458,167)"/>
<path d="M0 0 C3.37177756 2.16139587 3.8990335 3.62305841 4.9375 7.5 C5 11 5 11 3.9375 13.375 C1.24743479 15.63118373 -0.49885068 15.93135001 -4 16 C-9.61176471 13.77647059 -9.61176471 13.77647059 -11 11 C-11.45070423 3.90140845 -11.45070423 3.90140845 -10 1 C-6.73508353 -0.63245824 -3.51645414 -0.62388703 0 0 Z " fill="#000000" transform="translate(475,394)"/>
<path d="M0 0 C2.66803551 2.16777885 2.93406086 3.55726577 3.4375 6.9375 C2.8844646 10.80874779 1.8677605 12.35864164 -1 15 C-4.43649721 16.09675443 -6.34729582 16.18855898 -9.8125 15.1875 C-12 14 -12 14 -13 12 C-13.48602588 7.70677141 -13.46241608 5.67917361 -11 2.0625 C-6.86719289 -0.77880489 -4.93983691 -0.7170731 0 0 Z " fill="#000000" transform="translate(294,336)"/>
<path d="M0 0 C2.1640625 0.37109375 2.1640625 0.37109375 4.7265625 1.80859375 C6.79129818 5.48920952 7.04945772 9.23924939 6.1640625 13.37109375 C2.15542753 16.04351706 -1.12570252 16.06532614 -5.8359375 15.37109375 C-8.6627746 13.16262727 -8.83863077 11.36032068 -9.7109375 7.87109375 C-9.8359375 4.37109375 -9.8359375 4.37109375 -8.9609375 1.93359375 C-5.9944996 -0.24761059 -3.61610822 -0.19435109 0 0 Z " fill="#000000" transform="translate(41.8359375,102.62890625)"/>
<path d="M0 0 C2.6100795 0.57681315 3.53222844 1.34036344 5.12109375 3.46875 C5.76324708 7.80328498 5.60673904 9.75545848 3.12109375 13.40625 C-1.01171336 16.24755489 -2.93906934 16.1858231 -7.87890625 15.46875 C-10.54694176 13.30097115 -10.81296711 11.91148423 -11.31640625 8.53125 C-10.28025172 1.27816832 -6.65913965 -0.08983662 0 0 Z " fill="#000000" transform="translate(225.87890625,160.53125)"/>
<path d="M0 0 C1 1 1 1 1.0625 4.0625 C1.041875 5.031875 1.02125 6.00125 1 7 C-4.75649347 9.34523808 -10.74162176 11.61093563 -17 12 C-17.99 11.34 -18.98 10.68 -20 10 C-20.1875 6.875 -20.1875 6.875 -20 4 C-5.24218182 -1.696 -5.24218182 -1.696 0 0 Z " fill="#000000" transform="translate(448,150)"/>
<path d="M0 0 C1 1 1 1 1.0625 4.0625 C1.041875 5.031875 1.02125 6.00125 1 7 C-12.47368421 13.1754386 -12.47368421 13.1754386 -19 11 C-20 10 -20 10 -20.375 7.625 C-20 5 -20 5 -17.9375 3.3125 C-11.81541486 0.57710026 -6.62660099 -0.34275522 0 0 Z " fill="#000000" transform="translate(83,351)"/>
<path d="M0 0 C0.75 2.25 0.75 2.25 1 5 C-1.44462404 8.29084005 -4.05105848 9.96575341 -8 11 C-11.3125 10.625 -11.3125 10.625 -14 10 C-14.6875 7.6875 -14.6875 7.6875 -15 5 C-11.53918392 -0.29301283 -5.77570662 -1.51268507 0 0 Z " fill="#000000" transform="translate(440,130)"/>
<path d="M0 0 C0.625 2.3125 0.625 2.3125 1 5 C-1.5674355 8.85115325 -3.65013709 9.5500457 -8 11 C-11.4375 10.6875 -11.4375 10.6875 -14 10 C-14.625 7.6875 -14.625 7.6875 -15 5 C-11.31182372 -0.53226442 -6.25143622 -1.67721459 0 0 Z " fill="#000000" transform="translate(86,372)"/>
</svg>
